Coordinates
version=1
nRows=8
nColumns=28
inDegrees=yes

Units are S.I. units (second, meters, Newtons, ...)
Angles are in degrees.

endheader
time	pelvis_tilt	pelvis_list	pelvis_rotation	pelvis_tx	pelvis_ty	pelvis_tz	hip_flexion_r	hip_adduction_r	hip_rotation_r	knee_angle_r	ankle_angle_r	subtalar_angle_r	mtp_angle_r	hip_flexion_l	hip_adduction_l	hip_rotation_l	knee_angle_l	socket_flexion	socket_adduction	socket_rotation	socket_tx	socket_ty	socket_tz	foot_flex	lumbar_extension	lumbar_bending	lumbar_rotation
      0.31666667	     -2.67872344	      0.61497514	      0.22558071	     -0.46204091	      1.02147652	      0.27990596	     20.10494304	     -3.49027972	     -6.26981227	    -67.28928866	     11.45959425	     -9.50709118	     -3.49195717	      6.76696490	      1.70947581	     11.19574603	     -4.53174515	      0.00000000	      0.00000000	      0.00000000	      0.00000000	     -0.00510643	      0.00000000	     -0.90193938	     -7.57619644	     -2.70664885	     -0.33211324
      0.32083333	     -2.64922117	      0.60622690	      0.32433151	     -0.45698709	      1.02202408	      0.27984373	     20.66214307	     -3.50044966	     -6.29450478	    -66.94381059	     11.54139907	     -9.49946415	     -3.48523347	      6.40374604	      1.70259436	     11.23019632	     -4.48481406	      0.00000000	      0.00000000	      0.00000000	      0.00000000	     -0.00486128	      0.00000000	     -0.82995930	     -7.68565399	     -2.69319000	     -0.34537574
      0.32500000	     -2.62665525	      0.51492995	      0.44316043	     -0.45126651	      1.02263168	      0.27988716	     21.07612792	     -3.40212585	     -6.33809987	    -66.41471460	     11.93151507	     -9.37170286	     -3.43946889	      5.91007367	      1.57070469	     11.40345137	     -4.24474520	      0.00000000	      0.00000000	      0.00000000	      0.00000000	     -0.00461607	      0.00000000	     -0.62841318	     -7.60353887	     -2.60470582	     -0.43044255
      0.32916667	     -2.59889998	      0.49020143	      0.54308372	     -0.44631188	      1.02307018	      0.27980748	     21.62392869	     -3.40246452	     -6.38384386	    -66.01780912	     12.04316766	     -9.33342222	     -3.42655408	      5.57154256	      1.55244401	     11.42873132	     -4.22595312	      0.00000000	      0.00000000	      0.00000000	      0.00000000	     -0.00447458	      0.00000000	     -0.58117381	     -7.74351064	     -2.55492594	     -0.45181339
      0.33333333	     -2.39905047	     -0.03320313	      0.94669617	     -0.44059112	      1.02385918	      0.27905647	     21.66242939	     -3.00124740	     -6.88821831	    -65.22089312	     13.07323524	     -8.32427003	     -3.42386259	      4.95314030	      1.00859896	     11.91444513	     -4.05200519	      0.00000000	      0.00000000	      0.00000000	      0.00000000	     -0.00487097	      0.00000000	     -0.45988638	     -7.89526906	     -1.78981529	     -0.96480841
      0.33750000	     -2.32667222	     -0.06167363	      1.11951976	     -0.43520650	      1.02443095	      0.27904273	     22.02343817	     -3.01862508	     -7.01680895	    -64.62986805	     13.30082476	     -8.22333364	     -3.48795579	      4.48698288	      0.95484129	     12.03605667	     -3.90804647	      0.00000000	      0.00000000	      0.00000000	      0.00000000	     -0.00457973	      0.00000000	     -0.32767169	     -7.94673794	     -1.77817584	     -1.10718386
      0.34166667	     -2.30283812	     -0.06188923	      1.18259596	     -0.43027168	      1.02473033	      0.27902004	     22.55730527	     -3.05948315	     -7.06065260	    -64.15681010	     13.38050446	     -8.21155037	     -3.48986505	      4.14870856	      0.94974019	     12.07204469	     -3.88984830	      0.00000000	      0.00000000	      0.00000000	      0.00000000	     -0.00448283	      0.00000000	     -0.26749078	     -8.07503696	     -1.76618060	     -1.12785887
      0.34583333	     -2.00745346	     -0.46510427	      1.62385256	     -0.42450709	      1.02565826	      0.27835666	     22.43174539	     -2.80941260	     -7.61803021	    -63.20896921	     14.07872358	     -7.61326711	     -3.81548907	      3.41870740	      0.50591717	     12.57148867	     -3.68460715	      0.00000000	      0.00000000	      0.00000000	      0.00000000	     -0.00461439	      0.00000000	     -0.10140391	     -8.31156247	     -1.18723683	     -1.71395540
